# Wavefront OBJ file
# Exported by Misfit Model 3D 1.2.4
# Sat Aug 29 21:40:17 2020

# 35 Vertices
v -384.0 0.0 -624.0
v -192.0 192.000015 -464.0
v 0.0 0.0 -560.0
v -384.0 0.0 -624.0
v -384.0 0.0 -368.0
v -384.0 0.0 -368.0
v -384.0 0.0 -112.0
v -192.0 192.000015 -208.0
v 0.0 124.800003 -304.0
v 192.0 0.0 -400.0
v -384.0 0.0 -112.0
v -192.0 230.400009 48.0
v 0.0 278.400024 -48.0
v -384.0 0.0 144.0
v 192.0 192.000015 -144.0
v 192.0 0.0 -400.0
v 192.0 0.0 -400.0
v 384.0 0.0 -240.0
v -192.0 230.400009 304.0
v 0.0 211.200012 208.0
v 192.0 115.200005 112.0
v -384.0 0.0 400.0
v 384.0 0.0 16.0
v 384.0 0.0 -240.0
v 384.0 0.0 16.0
v 0.0 192.000015 464.0
v 192.0 163.200012 368.0
v -192.0 0.0 560.0
v -384.0 0.0 400.0
v 384.0 0.0 272.0
v 192.0 0.0 624.0
v -192.0 0.0 560.0
v 384.0 0.0 528.0
v 192.0 0.0 624.0
v 384.0 0.0 528.0

# 99 Texture Coordinates
vt 7.5 8.0
vt 4.5 5.5
vt 1.5 7.0
vt 7.5 8.0
vt 7.5 4.0
vt 4.5 5.5
vt 7.5 4.0
vt 7.5 0.0
vt 4.5 1.5
vt 7.5 4.0
vt 4.5 1.5
vt 4.5 5.5
vt 1.5 7.0
vt 4.5 5.5
vt 1.5 3.0
vt 4.5 5.5
vt 4.5 1.5
vt 1.5 3.0
vt 1.5 7.0
vt 1.5 3.0
vt -1.5 4.5
vt 7.5 0.0
vt 4.5 -2.5
vt 4.5 1.5
vt 4.5 1.5
vt 4.5 -2.5
vt 1.5 -1.0
vt 4.5 1.5
vt 1.5 -1.0
vt 1.5 3.0
vt 7.5 0.0
vt 7.5 -4.0
vt 4.5 -2.5
vt 1.5 3.0
vt -1.5 0.5
vt -1.5 4.5
vt 1.5 3.0
vt 1.5 -1.0
vt -1.5 0.5
vt -1.5 4.5
vt -1.5 0.5
vt -4.5 2.0
vt 4.5 -2.5
vt 4.5 -6.5
vt 1.5 -5.0
vt 7.5 -4.0
vt 4.5 -6.5
vt 4.5 -2.5
vt 1.5 -1.0
vt 4.5 -2.5
vt 1.5 -5.0
vt 1.5 -1.0
vt 1.5 -5.0
vt -1.5 -3.5
vt -1.5 0.5
vt 1.5 -1.0
vt -1.5 -3.5
vt 7.5 -4.0
vt 7.5 -8.0
vt 4.5 -6.5
vt -1.5 0.5
vt -4.5 -2.0
vt -4.5 2.0
vt -1.5 0.5
vt -1.5 -3.5
vt -4.5 -2.0
vt 1.5 -5.0
vt 4.5 -6.5
vt 1.5 -9.0
vt -1.5 -3.5
vt 1.5 -5.0
vt -1.5 -7.5
vt 1.5 -5.0
vt 1.5 -9.0
vt -1.5 -7.5
vt 4.5 -6.5
vt 4.5 -10.5
vt 1.5 -9.0
vt 4.5 -6.5
vt 7.5 -8.0
vt 4.5 -10.5
vt -1.5 -3.5
vt -4.5 -6.0
vt -4.5 -2.0
vt -1.5 -3.5
vt -1.5 -7.5
vt -4.5 -6.0
vt -1.5 -7.5
vt 1.5 -9.0
vt -1.5 -11.5
vt 1.5 -9.0
vt 4.5 -10.5
vt -1.5 -11.5
vt -1.5 -7.5
vt -4.5 -10.0
vt -4.5 -6.0
vt -1.5 -7.5
vt -1.5 -11.5
vt -4.5 -10.0

# 99 Vertex Normals
vn 0.137361 0.549442 -0.824163
vn 0.370306 0.684361 -0.628111
vn 0.363886 0.745941 -0.557816
vn -0.707107 0.707107 0.0
vn -0.707107 0.707107 0.0
vn -0.707107 0.707107 0.0
vn -0.707107 0.707107 0.0
vn -0.738423 0.674338 0.0
vn -0.626909 0.776607 -0.062179
vn -0.707107 0.707107 0.0
vn -0.626909 0.776607 -0.062179
vn -0.707107 0.707107 0.0
vn 0.363886 0.745941 -0.557816
vn 0.376784 0.818285 -0.434101
vn 0.279979 0.867167 -0.411865
vn 0.45939 0.868429 -0.186528
vn 0.023828 0.97234 -0.232352
vn 0.279979 0.867167 -0.411865
vn 0.363886 0.745941 -0.557816
vn 0.279979 0.867167 -0.411865
vn 0.343014 0.844342 -0.411617
vn -0.728395 0.677577 -0.101637
vn -0.570987 0.820957 0.001994
vn -0.626909 0.776607 -0.062179
vn -0.390502 0.90952 -0.142413
vn -0.470005 0.882662 0.001705
vn -0.06691 0.967277 -0.24474
vn 0.023828 0.97234 -0.232352
vn -0.046801 0.914297 -0.402331
vn 0.279979 0.867167 -0.411865
vn -0.738423 0.674338 0.0
vn -0.768221 0.640184 -0.0
vn -0.662133 0.746771 -0.062551
vn 0.279979 0.867167 -0.411865
vn 0.26619 0.791287 -0.550461
vn 0.214862 0.781316 -0.585987
vn 0.279979 0.867167 -0.411865
vn -0.046801 0.914297 -0.402331
vn 0.26619 0.791287 -0.550461
vn 0.447214 0.715542 -0.536656
vn 0.396689 0.809529 -0.432781
vn 0.447214 0.715542 -0.536656
vn -0.109896 0.993214 0.038055
vn 0.117775 0.992348 0.03708
vn 0.206207 0.975495 0.076732
vn -0.768221 0.640184 -0.0
vn -0.640327 0.697872 0.320867
vn -0.662133 0.746771 -0.062551
vn 0.163994 0.973749 0.157854
vn -0.28155 0.959543 0.002517
vn 0.206207 0.975495 0.076732
vn 0.316459 0.914791 0.251019
vn 0.206207 0.975495 0.076732
vn 0.524489 0.84896 0.064638
vn 0.603212 0.780808 0.162709
vn 0.316459 0.914791 0.251019
vn 0.524489 0.84896 0.064638
vn -0.768221 0.640184 -0.0
vn -0.768221 0.640184 -0.0
vn -0.640327 0.697872 0.320867
vn 0.593593 0.804637 -0.014374
vn 0.707107 0.707107 -0.0
vn 0.707107 0.707107 -0.0
vn 0.603212 0.780808 0.162709
vn 0.524489 0.84896 0.064638
vn 0.553518 0.824485 0.117654
vn 0.206207 0.975495 0.076732
vn 0.117775 0.992348 0.03708
vn 0.236174 0.945886 0.222534
vn 0.524489 0.84896 0.064638
vn 0.206207 0.975495 0.076732
vn 0.42947 0.892639 0.136936
vn 0.206207 0.975495 0.076732
vn 0.236174 0.945886 0.222534
vn 0.42947 0.892639 0.136936
vn -0.640327 0.697872 0.320867
vn -0.433452 0.669839 0.602855
vn -0.052769 0.719934 0.692033
vn -0.640327 0.697872 0.320867
vn -0.486921 0.649227 0.584305
vn -0.433452 0.669839 0.602855
vn 0.524489 0.84896 0.064638
vn 0.589033 0.806589 -0.049537
vn 0.553518 0.824485 0.117654
vn 0.524489 0.84896 0.064638
vn 0.42947 0.892639 0.136936
vn 0.589033 0.806589 -0.049537
vn 0.42947 0.892639 0.136936
vn 0.038035 0.885098 0.463847
vn 0.121599 0.704377 0.699334
vn -0.052769 0.719934 0.692033
vn -0.137361 0.549442 0.824163
vn 0.121599 0.704377 0.699334
vn 0.42947 0.892639 0.136936
vn 0.647648 0.761939 -0.0
vn 0.589033 0.806589 -0.049537
vn 0.42947 0.892639 0.136936
vn 0.259566 0.814326 0.519133
vn 0.259566 0.814326 0.519133

# 33 Ungrouped triangles

o ungrouped
g ungrouped

f 1/1/1 2/2/2 3/3/3
f 4/4/4 5/5/5 2/6/6
f 6/7/7 7/8/8 8/9/9
f 5/10/10 8/11/11 2/12/12
f 3/13/13 2/14/14 9/15/15
f 2/16/16 8/17/17 9/18/18
f 3/19/19 9/20/20 10/21/21
f 11/22/22 12/23/23 8/24/24
f 8/25/25 12/26/26 13/27/27
f 8/28/28 13/29/29 9/30/30
f 7/31/31 14/32/32 12/33/33
f 9/34/34 15/35/35 16/36/36
f 9/37/37 13/38/38 15/39/39
f 17/40/40 15/41/41 18/42/42
f 12/43/43 19/44/44 20/45/45
f 14/46/46 19/47/47 12/48/48
f 13/49/49 12/50/50 20/51/51
f 13/52/52 20/53/53 21/54/54
f 15/55/55 13/56/56 21/57/57
f 14/58/58 22/59/59 19/60/60
f 15/61/61 23/62/62 24/63/63
f 15/64/64 21/65/65 25/66/66
f 20/67/67 19/68/68 26/69/69
f 21/70/70 20/71/71 27/72/72
f 20/73/73 26/74/74 27/75/75
f 19/76/76 28/77/77 26/78/78
f 19/79/79 29/80/80 28/81/81
f 21/82/82 30/83/83 25/84/84
f 21/85/85 27/86/86 30/87/87
f 27/88/88 26/89/89 31/90/90
f 26/91/91 32/92/92 31/93/93
f 27/94/94 33/95/95 30/96/96
f 27/97/97 34/98/98 35/99/99
